<?xml version="1.0" standalone="no"?>
<!DOCTYPE svg PUBLIC "-//W3C//DTD SVG 20010904//EN"
 "http://www.w3.org/TR/2001/REC-SVG-20010904/DTD/svg10.dtd">
<svg version="1.0" xmlns="http://www.w3.org/2000/svg"
 width="256.000000pt" height="246.000000pt" viewBox="0 0 256.000000 246.000000"
 preserveAspectRatio="xMidYMid meet">

<g transform="translate(0.000000,246.000000) scale(0.100000,-0.100000)"
fill="#000000" stroke="none">
<path d="M0 1230 l0 -1230 1280 0 1280 0 0 1230 c0 813 -3 1230 -10 1230 -7 0
-10 -415 -10 -1225 l0 -1225 -1250 0 -1250 0 0 1225 c0 1218 0 1225 -20 1225
-20 0 -20 -7 -20 -1230z"/>
<path d="M1740 1870 c-8 -5 -12 -11 -10 -13 38 -30 70 -46 70 -35 -1 51 -25
70 -60 48z"/>
<path d="M1621 1841 c-40 -11 -34 -24 25 -59 45 -26 63 -31 90 -26 19 3 37 10
39 15 5 7 -109 80 -123 78 -4 -1 -18 -4 -31 -8z"/>
<path d="M1472 1803 c-34 -7 -23 -23 40 -60 49 -29 59 -31 92 -22 20 6 34 14
31 19 -9 14 -111 70 -126 69 -8 -1 -24 -4 -37 -6z"/>
<path d="M1328 1763 c-30 -8 -20 -21 43 -56 54 -31 64 -33 95 -24 19 6 34 13
34 16 0 3 -25 21 -54 39 -51 30 -77 36 -118 25z"/>
<path d="M1203 1727 c-18 -5 -33 -13 -33 -16 0 -9 109 -71 125 -71 8 0 26 5
41 11 l28 10 -30 20 c-67 45 -97 56 -131 46z"/>
<path d="M1062 1692 c-36 -11 -29 -24 29 -60 42 -25 61 -31 84 -26 51 10 49
20 -13 58 -62 38 -63 38 -100 28z"/>
<path d="M913 1650 c-13 -5 -23 -11 -23 -13 0 -8 104 -69 119 -70 24 -1 71 12
71 21 -1 11 -110 72 -128 71 -9 0 -27 -4 -39 -9z"/>
<path d="M766 1611 c-18 -7 -17 -8 6 -27 53 -42 93 -57 131 -50 21 4 37 10 37
14 0 4 -24 22 -53 40 -52 32 -84 38 -121 23z"/>
<path d="M730 1538 c0 -35 12 -47 43 -41 34 7 31 18 -11 44 l-32 21 0 -24z"/>
<path d="M763 1443 c-14 -5 -18 -63 -6 -63 13 0 53 52 47 61 -6 10 -21 10 -41
2z"/>
<path d="M833 1397 c-29 -27 -51 -52 -49 -56 3 -4 19 -8 37 -9 27 -2 41 5 81
45 57 56 60 72 16 71 -25 -1 -46 -13 -85 -51z"/>
<path d="M979 1397 c-26 -28 -45 -55 -43 -59 3 -4 19 -8 36 -8 25 0 42 11 80
52 26 28 45 54 42 57 -3 3 -19 6 -36 7 -26 2 -40 -7 -79 -49z"/>
<path d="M1128 1402 c-56 -52 -61 -72 -18 -72 23 0 44 12 80 46 28 26 50 52
50 59 0 7 -14 12 -32 12 -25 0 -44 -11 -80 -45z"/>
<path d="M1267 1398 c-51 -52 -53 -68 -7 -68 21 0 41 13 77 51 26 28 47 54 46
57 -2 4 -18 7 -35 8 -27 1 -42 -8 -81 -48z"/>
<path d="M1415 1399 c-30 -28 -52 -55 -49 -60 3 -5 19 -9 35 -9 23 0 44 12 81
48 53 51 56 72 12 72 -17 0 -44 -18 -79 -51z"/>
<path d="M1560 1404 c-58 -54 -63 -74 -19 -74 23 0 43 13 84 51 30 28 52 55
49 60 -3 5 -19 9 -35 9 -22 0 -43 -13 -79 -46z"/>
<path d="M1752 1443 c-24 -9 -101 -98 -92 -107 20 -20 80 5 116 48 20 24 37
48 38 52 1 10 -42 14 -62 7z"/>
<path d="M1820 1375 c-17 -18 -21 -28 -13 -36 21 -21 48 -6 51 29 4 39 -7 41
-38 7z"/>
<path d="M767 1292 c-15 -3 -17 -31 -17 -303 l0 -300 24 -24 c14 -14 41 -26
67 -30 24 -3 249 -5 499 -3 489 3 485 3 509 55 7 15 11 129 11 313 l0 290
-538 2 c-296 2 -546 2 -555 0z m491 -171 c37 -21 101 -58 142 -81 79 -45 110
-68 110 -80 0 -13 -319 -192 -330 -185 -11 7 -15 367 -3 378 9 10 7 11 81 -32z"/>
</g>
</svg>
