<?xml version="1.0" standalone="no"?>
<!DOCTYPE svg PUBLIC "-//W3C//DTD SVG 20010904//EN"
 "http://www.w3.org/TR/2001/REC-SVG-20010904/DTD/svg10.dtd">
<svg version="1.0" xmlns="http://www.w3.org/2000/svg"
 width="249.000000pt" height="244.000000pt" viewBox="0 0 249.000000 244.000000"
 preserveAspectRatio="xMidYMid meet">

<g transform="translate(0.000000,244.000000) scale(0.100000,-0.100000)"
fill="#000000" stroke="none">
<path d="M1594 2217 c-61 -29 -125 -57 -142 -64 -18 -6 -32 -15 -32 -20 0 -14
219 -227 227 -220 3 4 -24 38 -60 76 -36 39 -71 79 -77 91 -12 22 -15 20 183
105 70 31 86 54 48 75 -26 14 -21 15 -147 -43z"/>
<path d="M1225 2049 c-49 -22 -105 -47 -122 -54 -18 -8 -33 -18 -33 -23 0 -14
170 -197 186 -200 22 -5 17 12 -11 38 -32 30 -85 112 -85 131 0 8 42 32 105
58 58 24 105 47 105 51 0 10 -35 40 -46 40 -5 0 -49 -19 -99 -41z"/>
<path d="M930 1915 c-25 -13 -71 -34 -103 -46 -33 -12 -61 -28 -64 -35 -6 -15
144 -194 163 -194 21 0 17 12 -16 52 -29 34 -60 96 -60 116 0 5 38 26 85 47
47 21 85 41 85 45 0 7 -34 40 -41 40 -2 -1 -24 -12 -49 -25z"/>
<path d="M1805 1883 c-120 -47 -523 -196 -877 -324 -158 -57 -288 -107 -288
-111 0 -15 81 -8 133 11 359 131 794 287 966 347 118 41 219 78 224 81 14 9
-23 33 -47 32 -12 -1 -61 -17 -111 -36z"/>
<path d="M573 1756 c-62 -28 -91 -45 -88 -54 12 -32 131 -172 148 -172 23 0
22 2 -13 52 -17 24 -33 60 -36 80 l-6 37 66 30 c68 31 75 38 54 59 -16 16 -21
15 -125 -32z"/>
<path d="M380 1667 c-31 -16 -36 -54 -18 -152 12 -64 15 -70 38 -70 24 0 25 2
26 75 1 42 6 85 12 96 9 16 8 26 -4 42 -18 25 -21 26 -54 9z"/>
<path d="M1783 1413 c9 -2 23 -2 30 0 6 3 -1 5 -18 5 -16 0 -22 -2 -12 -5z"/>
<path d="M1635 1401 c-11 -18 -115 -264 -115 -272 0 -27 27 5 103 124 47 72
91 138 97 145 8 9 1 12 -34 12 -25 0 -47 -4 -51 -9z"/>
<path d="M1269 1393 c-23 -4 -32 -18 -75 -126 -27 -67 -50 -125 -52 -129 -2
-5 3 -8 11 -8 13 0 124 157 160 227 16 30 14 44 -7 42 -6 -1 -23 -4 -37 -6z"/>
<path d="M903 1368 c-6 -7 -26 -56 -46 -108 -19 -52 -38 -103 -42 -112 -5 -12
-2 -18 7 -18 14 0 52 53 145 197 l34 53 -44 0 c-25 0 -49 -6 -54 -12z"/>
<path d="M603 1358 c-7 -11 -62 -157 -80 -210 -3 -12 0 -18 9 -18 11 0 128
164 162 228 5 9 -5 12 -38 12 -25 0 -48 -6 -53 -12z"/>
<path d="M399 1348 c-2 -7 -4 -58 -4 -113 0 -96 1 -100 23 -103 18 -3 22 1 22
22 0 14 11 60 25 103 14 43 25 84 25 91 0 8 -15 12 -44 12 -27 0 -45 -5 -47
-12z"/>
<path d="M397 1053 c-10 -9 -8 -246 2 -261 8 -13 92 246 84 261 -5 9 -77 9
-86 0z"/>
<path d="M1531 196 c2 -3 48 -12 101 -21 80 -14 100 -14 120 -4 22 13 22 13
-17 20 -43 8 -211 12 -204 5z"/>
</g>
</svg>
